# xmcd
#
# Track frame offsets:
#	150
#	13725
#	25755
#	39114
#	55374
#	78096
#	87273
#	96431
#	109430
#	120975
#	136613
#	159141
#
# Disc length: 2450 seconds
# Revision: 0
# Processed by: cddbd v1.5.2PL0 Copyright (c) Steve Scherf et al.
# Submitted via: dBpowerAMP V12.0
#
DISCID=8309900c
DTITLE=The Rusty String Express - Rusty String Express
DYEAR=2018
DGENRE=Bluegrass
TTITLE0=Marty's Jig
TTITLE1=Behind the Green Shed
TTITLE2=Sea Pod
TTITLE3=Winds of Enceladus
TTITLE4=Baby on a Cliff
TTITLE5=Birthday Suit
TTITLE6=Old Joe Clark/Cluck Old Hen
TTITLE7=Hairless Ninja
TTITLE8=Rasputin's Reel
TTITLE9=Lapel
TTITLE10=Bow Legged
TTITLE11=Caravan
EXTD=
EXTT0=
EXTT1=
EXTT2=
EXTT3=
EXTT4=
EXTT5=
EXTT6=
EXTT7=
EXTT8=
EXTT9=
EXTT10=
EXTT11=
PLAYORDER=
